<?xml version="1.0" encoding="iso-8859-1"?>
<!-- Generator: Adobe Illustrator 18.0.0, SVG Export Plug-In . SVG Version: 6.00 Build 0)  -->
<!DOCTYPE svg PUBLIC "-//W3C//DTD SVG 1.1//EN" "http://www.w3.org/Graphics/SVG/1.1/DTD/svg11.dtd">
<svg version="1.1" id="Capa_1" xmlns="http://www.w3.org/2000/svg" xmlns:xlink="http://www.w3.org/1999/xlink" x="0px" y="0px"
	 viewBox="0 0 56 56" style="enable-background:new 0 0 56 56;" xml:space="preserve">
	 <g>
<path d="M36.985 0H7.963C7.155 0 6.5 0.655 6.5 1.926V55C6.5 55.345 7.155 56 7.963 56H48.037C48.845 56 49.5 55.345 49.5 55V12.978C49.5 12.282 49.407 12.058 49.243 11.893L37.607 0.257C37.442 0.093 37.218 0 36.985 0Z" fill="#E9E9E0"/>
<path d="M37.5 0.152344V12.0013H49.349L37.5 0.152344Z" fill="#D9D7CA"/>
<path d="M48.037 56H7.963C7.155 56 6.5 55.345 6.5 54.537V39H49.5V54.537C49.5 55.345 48.845 56 48.037 56Z" fill="#556080"/>
<circle cx="28" cy="24" r="2" fill="#C8BDB8"/>
<circle cx="22" cy="24" r="2" fill="#C8BDB8"/>
<circle cx="34" cy="24" r="2" fill="#C8BDB8"/>
<path d="M16.3916 47.25V47.6406C16.3916 48.1777 16.3216 48.6595 16.1816 49.0859C16.0417 49.5124 15.8415 49.8753 15.5811 50.1748C15.3239 50.4743 15.0146 50.7038 14.6533 50.8633C14.292 51.0195 13.8916 51.0977 13.4521 51.0977C13.016 51.0977 12.6172 51.0195 12.2559 50.8633C11.8978 50.7038 11.5869 50.4743 11.3232 50.1748C11.0596 49.8753 10.8545 49.5124 10.708 49.0859C10.5648 48.6595 10.4932 48.1777 10.4932 47.6406V47.25C10.4932 46.7129 10.5648 46.2327 10.708 45.8096C10.8512 45.3831 11.0531 45.0202 11.3135 44.7207C11.5771 44.418 11.888 44.1885 12.2461 44.0322C12.6074 43.8727 13.0062 43.793 13.4424 43.793C13.8818 43.793 14.2822 43.8727 14.6436 44.0322C15.0049 44.1885 15.3158 44.418 15.5762 44.7207C15.8366 45.0202 16.0368 45.3831 16.1768 45.8096C16.32 46.2327 16.3916 46.7129 16.3916 47.25ZM15.166 47.6406V47.2402C15.166 46.8431 15.127 46.4932 15.0488 46.1904C14.974 45.8844 14.8617 45.6289 14.7119 45.4238C14.5654 45.2155 14.3848 45.0592 14.1699 44.9551C13.9551 44.8477 13.7126 44.7939 13.4424 44.7939C13.1722 44.7939 12.9313 44.8477 12.7197 44.9551C12.5081 45.0592 12.3275 45.2155 12.1777 45.4238C12.0312 45.6289 11.9189 45.8844 11.8408 46.1904C11.7627 46.4932 11.7236 46.8431 11.7236 47.2402V47.6406C11.7236 48.0378 11.7627 48.3893 11.8408 48.6953C11.9189 49.0013 12.0329 49.2601 12.1826 49.4717C12.3356 49.68 12.5179 49.8379 12.7295 49.9453C12.9411 50.0495 13.182 50.1016 13.4521 50.1016C13.7256 50.1016 13.9681 50.0495 14.1797 49.9453C14.3913 49.8379 14.5703 49.68 14.7168 49.4717C14.8633 49.2601 14.974 49.0013 15.0488 48.6953C15.127 48.3893 15.166 48.0378 15.166 47.6406ZM20.8979 43.8906V51H19.682V43.8906H20.8979ZM23.1293 43.8906V44.8672H17.4701V43.8906H23.1293ZM29.3641 46.8594V47.8311H25.5896V46.8594H29.3641ZM25.8924 43.8906V51H24.6668V43.8906H25.8924ZM30.3064 43.8906V51H29.0857V43.8906H30.3064ZM37.0197 50.0283V51H33.2453V50.0283H37.0197ZM33.592 43.8906V51H32.3664V43.8906H33.592ZM36.5266 46.8594V47.8164H33.2453V46.8594H36.5266ZM36.9953 43.8906V44.8672H33.2453V43.8906H36.9953ZM38.6207 43.8906H41.1354C41.6757 43.8906 42.1363 43.972 42.5172 44.1348C42.898 44.2975 43.1894 44.5384 43.3912 44.8574C43.5963 45.1732 43.6988 45.5638 43.6988 46.0293C43.6988 46.3841 43.6337 46.6966 43.5035 46.9668C43.3733 47.237 43.1894 47.4648 42.9518 47.6504C42.7141 47.8327 42.4309 47.9743 42.1021 48.0752L41.7311 48.2559H39.4703L39.4605 47.2842H41.1549C41.4479 47.2842 41.692 47.2321 41.8873 47.1279C42.0826 47.0238 42.2291 46.8822 42.3268 46.7031C42.4277 46.5208 42.4781 46.3158 42.4781 46.0879C42.4781 45.8405 42.4293 45.6257 42.3316 45.4434C42.2372 45.2578 42.0908 45.1162 41.8922 45.0186C41.6936 44.9176 41.4413 44.8672 41.1354 44.8672H39.8463V51H38.6207V43.8906ZM42.6783 51L41.0084 47.8066L42.2926 47.8018L43.9869 50.9365V51H42.6783Z" fill="white"/>
</g>
</svg>
